<?xml version="1.0" encoding="UTF-8"?>
<svg width="2201px" height="674px" viewBox="0 0 2201 674" version="1.1" xmlns="http://www.w3.org/2000/svg" xmlns:xlink="http://www.w3.org/1999/xlink">
    <title>logo_text_azul</title>
    <g id="Page-1" stroke="none" stroke-width="1" fill="none" fill-rule="evenodd">
        <g id="logo_text_azul" fill-rule="nonzero">
            <g id="Motion-Displays" transform="translate(851.521, 267.9624)" fill="#111111">
                <g id="Motion">
                    <polygon id="Path" points="174.870605 141.037598 174.870605 44.4433594 123.820801 141.037598 88.1860352 141.037598 37.1362305 44.4433594 37.1362305 141.037598 0 141.037598 0 3.50341797 50.4492188 3.50341797 106.003418 107.60498 161.557617 3.50341797 211.806641 3.50341797 211.806641 141.037598"></polygon>
                    <path d="M432.822266,72.3706055 C432.822266,84.1821289 430.653483,94.6089681 426.315918,103.651123 C421.978353,112.693278 415.772298,120.250651 407.697754,126.323242 C399.62321,132.395833 389.830322,136.983643 378.319092,140.08667 C366.807861,143.189697 353.878581,144.741211 339.53125,144.741211 C325.183919,144.741211 312.221273,143.189697 300.643311,140.08667 C289.065348,136.983643 279.205729,132.395833 271.064453,126.323242 C262.923177,120.250651 256.650391,112.693278 252.246094,103.651123 C247.841797,94.6089681 245.639648,84.1821289 245.639648,72.3706055 C245.639648,60.559082 247.841797,50.1322428 252.246094,41.0900879 C256.650391,32.0479329 262.923177,24.4905599 271.064453,18.4179688 C279.205729,12.3453776 289.065348,7.75756836 300.643311,4.65454102 C312.221273,1.55151367 325.183919,0 339.53125,0 C353.878581,0 366.807861,1.55151367 378.319092,4.65454102 C389.830322,7.75756836 399.62321,12.3453776 407.697754,18.4179688 C415.772298,24.4905599 421.978353,32.0479329 426.315918,41.0900879 C430.653483,50.1322428 432.822266,60.559082 432.822266,72.3706055 Z M395.285645,72.3706055 C395.285645,67.2322591 394.46818,62.1105957 392.833252,57.0056152 C391.198324,51.9006348 388.295492,47.3128255 384.124756,43.2421875 C379.95402,39.1715495 374.265137,35.8683268 367.058105,33.3325195 C359.851074,30.7967122 350.675456,29.5288086 339.53125,29.5288086 C332.057292,29.5288086 325.484212,30.1127116 319.812012,31.2805176 C314.139811,32.4483236 309.235026,34.066569 305.097656,36.1352539 C300.960286,38.2039388 297.490234,40.6229655 294.6875,43.392334 C291.884766,46.1617025 289.649251,49.1312663 287.980957,52.3010254 C286.312663,55.4707845 285.128174,58.7740072 284.42749,62.2106934 C283.726807,65.6473796 283.376465,69.0340169 283.376465,72.3706055 C283.376465,75.7739258 283.726807,79.210612 284.42749,82.6806641 C285.128174,86.1507161 286.312663,89.4706217 287.980957,92.6403809 C289.649251,95.81014 291.884766,98.7630208 294.6875,101.499023 C297.490234,104.235026 300.960286,106.620687 305.097656,108.656006 C309.235026,110.691325 314.139811,112.292887 319.812012,113.460693 C325.484212,114.628499 332.057292,115.212402 339.53125,115.212402 C350.675456,115.212402 359.851074,113.944499 367.058105,111.408691 C374.265137,108.872884 379.95402,105.569661 384.124756,101.499023 C388.295492,97.4283854 391.198324,92.8405762 392.833252,87.7355957 C394.46818,82.6306152 395.285645,77.5089518 395.285645,72.3706055 Z" id="Shape"></path>
                    <polygon id="Path" points="543.730469 33.4326172 543.730469 141.037598 506.594238 141.037598 506.594238 33.4326172 448.237305 33.4326172 448.237305 3.50341797 602.1875 3.50341797 602.1875 33.4326172"></polygon>
                    <polygon id="Path" points="626.711426 141.037598 626.711426 3.50341797 663.847656 3.50341797 663.847656 141.037598"></polygon>
                    <path d="M884.863281,72.3706055 C884.863281,84.1821289 882.694499,94.6089681 878.356934,103.651123 C874.019368,112.693278 867.813314,120.250651 859.73877,126.323242 C851.664225,132.395833 841.871338,136.983643 830.360107,140.08667 C818.848877,143.189697 805.919596,144.741211 791.572266,144.741211 C777.224935,144.741211 764.262288,143.189697 752.684326,140.08667 C741.106364,136.983643 731.246745,132.395833 723.105469,126.323242 C714.964193,120.250651 708.691406,112.693278 704.287109,103.651123 C699.882812,94.6089681 697.680664,84.1821289 697.680664,72.3706055 C697.680664,60.559082 699.882812,50.1322428 704.287109,41.0900879 C708.691406,32.0479329 714.964193,24.4905599 723.105469,18.4179688 C731.246745,12.3453776 741.106364,7.75756836 752.684326,4.65454102 C764.262288,1.55151367 777.224935,0 791.572266,0 C805.919596,0 818.848877,1.55151367 830.360107,4.65454102 C841.871338,7.75756836 851.664225,12.3453776 859.73877,18.4179688 C867.813314,24.4905599 874.019368,32.0479329 878.356934,41.0900879 C882.694499,50.1322428 884.863281,60.559082 884.863281,72.3706055 Z M847.32666,72.3706055 C847.32666,67.2322591 846.509196,62.1105957 844.874268,57.0056152 C843.239339,51.9006348 840.336507,47.3128255 836.165771,43.2421875 C831.995036,39.1715495 826.306152,35.8683268 819.099121,33.3325195 C811.89209,30.7967122 802.716471,29.5288086 791.572266,29.5288086 C784.098307,29.5288086 777.525228,30.1127116 771.853027,31.2805176 C766.180827,32.4483236 761.276042,34.066569 757.138672,36.1352539 C753.001302,38.2039388 749.53125,40.6229655 746.728516,43.392334 C743.925781,46.1617025 741.690267,49.1312663 740.021973,52.3010254 C738.353678,55.4707845 737.169189,58.7740072 736.468506,62.2106934 C735.767822,65.6473796 735.41748,69.0340169 735.41748,72.3706055 C735.41748,75.7739258 735.767822,79.210612 736.468506,82.6806641 C737.169189,86.1507161 738.353678,89.4706217 740.021973,92.6403809 C741.690267,95.81014 743.925781,98.7630208 746.728516,101.499023 C749.53125,104.235026 753.001302,106.620687 757.138672,108.656006 C761.276042,110.691325 766.180827,112.292887 771.853027,113.460693 C777.525228,114.628499 784.098307,115.212402 791.572266,115.212402 C802.716471,115.212402 811.89209,113.944499 819.099121,111.408691 C826.306152,108.872884 831.995036,105.569661 836.165771,101.499023 C840.336507,97.4283854 843.239339,92.8405762 844.874268,87.7355957 C846.509196,82.6306152 847.32666,77.5089518 847.32666,72.3706055 Z" id="Shape"></path>
                    <path d="M1049.72412,141.037598 L1049.72412,63.9624023 C1049.72412,58.824056 1049.29036,54.169515 1048.42285,49.9987793 C1047.55534,45.8280436 1045.93709,42.2578939 1043.56812,39.2883301 C1041.19914,36.3187663 1037.89591,34.0165202 1033.65845,32.3815918 C1029.42098,30.7466634 1023.96566,29.9291992 1017.29248,29.9291992 C1012.22087,29.9291992 1006.89901,30.6131999 1001.3269,31.9812012 C995.754801,33.3492025 990.232747,35.1676432 984.760742,37.4365234 C979.288737,39.7054036 974.066976,42.3413086 969.095459,45.3442383 C964.123942,48.347168 959.702962,51.4835612 955.83252,54.753418 L955.83252,141.037598 L918.696289,141.037598 L918.696289,3.50341797 L955.83252,3.50341797 L955.83252,22.3217773 C960.503743,19.6525065 965.47526,16.9999186 970.74707,14.3640137 C976.01888,11.7281087 981.624349,9.34244792 987.563477,7.20703125 C993.502604,5.07161458 999.808757,3.33658854 1006.48193,2.00195312 C1013.15511,0.667317708 1020.19531,0 1027.60254,0 C1036.87826,0 1045.16968,1.11775716 1052.47681,3.35327148 C1059.78394,5.58878581 1065.97331,8.75854492 1071.04492,12.8625488 C1076.11654,16.9665527 1080.00366,21.9380697 1082.7063,27.7770996 C1085.40894,33.6161296 1086.76025,40.1391602 1086.76025,47.3461914 L1086.76025,141.037598 L1049.72412,141.037598 Z" id="Path"></path>
                </g>
                <g id="Displays" transform="translate(0, 171)">
                    <path d="M168.464355,72.1704102 C168.464355,80.9790039 167.496745,88.803304 165.561523,95.6433105 C163.626302,102.483317 160.906982,108.439128 157.403564,113.510742 C153.900146,118.582357 149.696045,122.886556 144.79126,126.42334 C139.886475,129.960124 134.431152,132.796224 128.425293,134.931641 C122.419434,137.067057 115.946452,138.618571 109.006348,139.586182 C102.066243,140.553792 94.8258464,141.037598 87.2851562,141.037598 L0,141.037598 L0,3.50341797 L87.0849609,3.50341797 C94.625651,3.50341797 101.866048,3.98722331 108.806152,4.95483398 C115.746257,5.92244466 122.235921,7.47395833 128.275146,9.609375 C134.314372,11.7447917 139.80306,14.564209 144.741211,18.067627 C149.679362,21.5710449 153.900146,25.8752441 157.403564,30.9802246 C160.906982,36.0852051 163.626302,42.0410156 165.561523,48.8476562 C167.496745,55.6542969 168.464355,63.4285482 168.464355,72.1704102 Z M131.027832,72.1704102 C131.027832,65.5639648 130.177002,59.8250326 128.475342,54.9536133 C126.773682,50.082194 124.037679,46.0616048 120.267334,42.8918457 C116.496989,39.7220866 111.575521,37.3531087 105.50293,35.7849121 C99.4303385,34.2167155 92.023112,33.4326172 83.28125,33.4326172 L37.1362305,33.4326172 L37.1362305,111.108398 L83.28125,111.108398 C92.023112,111.108398 99.4303385,110.3243 105.50293,108.756104 C111.575521,107.187907 116.496989,104.785563 120.267334,101.549072 C124.037679,98.3125814 126.773682,94.2586263 128.475342,89.387207 C130.177002,84.5157878 131.027832,78.7768555 131.027832,72.1704102 Z" id="Shape"></path>
                    <polygon id="Path" points="202.297363 141.037598 202.297363 3.50341797 239.433594 3.50341797 239.433594 141.037598"></polygon>
                    <path d="M409.199219,42.2412109 C406.59668,40.9733073 403.159993,39.5385742 398.88916,37.9370117 C394.618327,36.3354492 389.780273,34.8173014 384.375,33.3825684 C378.969727,31.9478353 373.097331,30.7466634 366.757812,29.7790527 C360.418294,28.8114421 353.911947,28.3276367 347.23877,28.3276367 C341.900228,28.3276367 337.345785,28.4944661 333.575439,28.828125 C329.805094,29.1617839 326.635335,29.5955404 324.066162,30.1293945 C321.496989,30.6632487 319.46167,31.2805176 317.960205,31.9812012 C316.45874,32.6818848 315.307617,33.3992513 314.506836,34.1333008 C313.706055,34.8673503 313.188883,35.6013997 312.955322,36.3354492 C312.721761,37.0694987 312.60498,37.7368164 312.60498,38.3374023 C312.60498,40.3393555 313.605957,42.0910645 315.60791,43.5925293 C317.609863,45.0939941 320.345866,46.4286296 323.815918,47.5964355 C327.28597,48.7642415 331.323242,49.8653158 335.927734,50.8996582 C340.532227,51.9340007 345.420329,53.001709 350.592041,54.1027832 C355.763753,55.2038574 361.102295,56.4050293 366.607666,57.7062988 C372.113037,59.0075684 377.451579,60.5257161 382.623291,62.2607422 C387.795003,63.9957682 392.683105,66.0144043 397.287598,68.3166504 C401.89209,70.6188965 405.929362,73.3048503 409.399414,76.3745117 C412.869466,79.4441732 415.605469,82.980957 417.607422,86.9848633 C419.609375,90.9887695 420.610352,95.5598958 420.610352,100.698242 C420.610352,107.304688 419.442546,112.976888 417.106934,117.714844 C414.771322,122.452799 411.651611,126.456706 407.747803,129.726562 C403.843994,132.996419 399.322917,135.615641 394.18457,137.584229 C389.046224,139.552816 383.657633,141.070964 378.018799,142.138672 C372.379964,143.20638 366.674398,143.907064 360.9021,144.240723 C355.129801,144.574382 349.641113,144.741211 344.436035,144.741211 C330.822754,144.741211 318.227132,143.623454 306.64917,141.387939 C295.071208,139.152425 284.844564,136.366374 275.969238,133.029785 L275.969238,100.197754 C285.111491,105.269368 295.53833,109.239909 307.249756,112.109375 C318.961182,114.978841 331.490072,116.413574 344.836426,116.413574 C352.710775,116.413574 359.133708,115.996501 364.105225,115.162354 C369.076742,114.328206 372.963867,113.260498 375.766602,111.959229 C378.569336,110.657959 380.471191,109.239909 381.472168,107.705078 C382.473145,106.170247 382.973633,104.702148 382.973633,103.300781 C382.973633,101.098633 381.972656,99.1800944 379.970703,97.545166 C377.96875,95.9102376 375.232747,94.4755046 371.762695,93.2409668 C368.292643,92.006429 364.255371,90.8719889 359.650879,89.8376465 C355.046387,88.803304 350.158285,87.7689616 344.986572,86.7346191 C339.81486,85.7002767 334.493001,84.5825195 329.020996,83.3813477 C323.548991,82.1801758 318.227132,80.7621257 313.05542,79.1271973 C307.883708,77.4922689 302.995605,75.5904134 298.391113,73.4216309 C293.786621,71.2528483 289.749349,68.6836751 286.279297,65.7141113 C282.809245,62.7445475 280.073242,59.3078613 278.071289,55.4040527 C276.069336,51.5002441 275.068359,46.9791667 275.068359,41.8408203 C275.068359,35.7682292 276.136068,30.5297852 278.271484,26.1254883 C280.406901,21.7211914 283.29305,17.9675293 286.929932,14.864502 C290.566813,11.7614746 294.770915,9.24235026 299.542236,7.30712891 C304.313558,5.37190755 309.335124,3.87044271 314.606934,2.80273438 C319.878743,1.73502604 325.217285,1.00097656 330.622559,0.600585938 C336.027832,0.200195312 341.166178,0 346.037598,0 C351.376139,0 356.864827,0.266927083 362.503662,0.80078125 C368.142497,1.33463542 373.697917,2.08536784 379.169922,3.05297852 C384.641927,4.02058919 389.93042,5.13834635 395.0354,6.40625 C400.140381,7.67415365 404.861654,9.00878906 409.199219,10.4101562 L409.199219,42.2412109 Z" id="Path"></path>
                    <path d="M610.29541,50.4492188 C610.29541,57.3225911 609.294434,63.6454264 607.29248,69.4177246 C605.290527,75.1900228 602.070719,80.1615397 597.633057,84.3322754 C593.195394,88.5030111 587.439779,91.7561849 580.366211,94.0917969 C573.292643,96.4274089 564.684245,97.5952148 554.541016,97.5952148 L492.880859,97.5952148 L492.880859,141.037598 L455.744629,141.037598 L455.744629,3.50341797 L554.541016,3.50341797 C564.684245,3.50341797 573.292643,4.65454102 580.366211,6.95678711 C587.439779,9.2590332 593.195394,12.4955241 597.633057,16.6662598 C602.070719,20.8369954 605.290527,25.7918294 607.29248,31.5307617 C609.294434,37.269694 610.29541,43.5758464 610.29541,50.4492188 Z M572.758789,51.0498047 C572.758789,47.8466797 572.30835,45.0939941 571.407471,42.791748 C570.506592,40.489502 569.02181,38.6043294 566.953125,37.1362305 C564.88444,35.6681315 562.181803,34.5837402 558.845215,33.8830566 C555.508626,33.182373 551.404622,32.8320312 546.533203,32.8320312 L492.880859,32.8320312 L492.880859,68.2666016 L546.533203,68.2666016 C551.404622,68.2666016 555.508626,67.9829915 558.845215,67.4157715 C562.181803,66.8485514 564.88444,65.8809408 566.953125,64.5129395 C569.02181,63.1449382 570.506592,61.3598633 571.407471,59.1577148 C572.30835,56.9555664 572.758789,54.2529297 572.758789,51.0498047 Z" id="Shape"></path>
                    <path d="M678.161621,82.1801758 C678.161621,87.9191081 678.695475,92.607015 679.763184,96.2438965 C680.830892,99.880778 682.565918,102.766927 684.968262,104.902344 C687.370605,107.03776 690.490316,108.505859 694.327393,109.306641 C698.164469,110.107422 702.885742,110.507812 708.491211,110.507812 L778.959961,110.507812 L778.959961,141.037598 L700.883789,141.037598 C690.073242,141.037598 680.880941,140.153402 673.306885,138.38501 C665.732829,136.616618 659.543457,133.880615 654.73877,130.177002 C649.934082,126.473389 646.447347,121.785482 644.278564,116.113281 C642.109782,110.441081 641.025391,103.701172 641.025391,95.8935547 L641.025391,3.50341797 L678.161621,3.50341797 L678.161621,82.1801758 Z" id="Path"></path>
                    <path d="M925.302734,141.037598 L925.302734,127.524414 C920.564779,130.126953 915.476481,132.429199 910.037842,134.431152 C904.599202,136.433105 898.943685,138.134766 893.071289,139.536133 C887.198893,140.9375 881.142985,141.988525 874.903564,142.689209 C868.664144,143.389893 862.374674,143.740234 856.035156,143.740234 C848.62793,143.740234 841.470947,143.039551 834.564209,141.638184 C827.657471,140.236816 821.534831,137.967936 816.196289,134.831543 C810.857747,131.69515 806.570231,127.591146 803.33374,122.519531 C800.097249,117.447917 798.479004,111.241862 798.479004,103.901367 C798.479004,94.625651 801.014811,86.9014486 806.086426,80.7287598 C811.15804,74.556071 818.898926,69.5011393 829.309082,65.5639648 C839.719238,61.6267904 852.88208,58.5904948 868.797607,56.4550781 C884.713135,54.3196615 903.548177,52.6513672 925.302734,51.4501953 L925.302734,48.5473633 C925.302734,46.2784831 924.702148,44.0262858 923.500977,41.7907715 C922.299805,39.5552572 920.114339,37.5866699 916.94458,35.8850098 C913.774821,34.1833496 909.437256,32.7986654 903.931885,31.730957 C898.426514,30.6632487 891.402995,30.1293945 882.861328,30.1293945 C876.121419,30.1293945 869.464925,30.4797363 862.891846,31.1804199 C856.318766,31.8811035 849.979248,32.8320312 843.873291,34.0332031 C837.767334,35.234375 831.978353,36.6357422 826.506348,38.2373047 C821.034342,39.8388672 816.062826,41.5071615 811.591797,43.2421875 L811.591797,10.2099609 C816.263021,9.00878906 821.501465,7.84098307 827.307129,6.70654297 C833.112793,5.57210286 839.152018,4.58780924 845.424805,3.75366211 C851.697591,2.91951497 858.037109,2.25219727 864.443359,1.75170898 C870.849609,1.2512207 876.988932,1.00097656 882.861328,1.00097656 C894.405924,1.00097656 905.049642,1.9519043 914.79248,3.85375977 C924.535319,5.75561523 932.926839,8.70849609 939.967041,12.7124023 C947.007243,16.7163086 952.512614,21.7879232 956.483154,27.9272461 C960.453695,34.066569 962.438965,41.3736979 962.438965,49.8486328 L962.438965,141.037598 L925.302734,141.037598 Z M925.302734,78.2763672 C911.022135,78.8102214 898.893636,79.5776367 888.917236,80.5786133 C878.940837,81.5795898 870.649414,82.7473958 864.042969,84.0820312 C857.436523,85.4166667 852.248128,86.8513997 848.477783,88.3862305 C844.707438,89.9210612 841.888021,91.4892578 840.019531,93.0908203 C838.151042,94.6923828 836.999919,96.2939453 836.566162,97.8955078 C836.132406,99.4970703 835.915527,100.965169 835.915527,102.299805 C835.915527,103.901367 836.349284,105.452881 837.216797,106.954346 C838.08431,108.455811 839.602458,109.773763 841.77124,110.908203 C843.940023,112.042643 846.826172,112.943522 850.429688,113.61084 C854.033203,114.278158 858.570964,114.611816 864.042969,114.611816 C870.11556,114.611816 876.054688,114.144694 881.860352,113.210449 C887.666016,112.276204 893.171387,110.991618 898.376465,109.356689 C903.581543,107.721761 908.469645,105.78654 913.040771,103.551025 C917.611898,101.315511 921.699219,98.9298503 925.302734,96.394043 L925.302734,78.2763672 Z" id="Shape"></path>
                    <path d="M1168.23975,88.1860352 C1168.23975,97.1280924 1166.0376,105.102539 1161.6333,112.109375 C1157.229,119.116211 1150.9729,125.038656 1142.86499,129.876709 C1134.75708,134.714762 1124.94751,138.401693 1113.43628,140.9375 C1101.92505,143.473307 1089.02913,144.741211 1074.74854,144.741211 C1068.47575,144.741211 1061.88599,144.490967 1054.97925,143.990479 C1048.07251,143.48999 1041.3326,142.789307 1034.75952,141.888428 C1028.18644,140.987549 1022.03044,139.953206 1016.2915,138.7854 C1010.55257,137.617594 1005.71452,136.333008 1001.77734,134.931641 L1001.77734,102.299805 C1006.04818,104.101562 1010.80282,105.803223 1016.04126,107.404785 C1021.2797,109.006348 1026.96859,110.424398 1033.10791,111.658936 C1039.24723,112.893473 1045.837,113.861084 1052.8772,114.561768 C1059.9174,115.262451 1067.37467,115.612793 1075.24902,115.612793 C1082.65625,115.612793 1089.17928,115.179036 1094.81812,114.311523 C1100.45695,113.44401 1105.34505,112.276204 1109.48242,110.808105 C1113.61979,109.340007 1117.05648,107.655029 1119.79248,105.753174 C1122.52848,103.851318 1124.73063,101.882731 1126.39893,99.8474121 C1128.06722,97.8120931 1129.25171,95.793457 1129.95239,93.7915039 C1130.65308,91.7895508 1131.00342,89.9210612 1131.00342,88.1860352 L1131.00342,76.0742188 C1124.19678,81.0791016 1116.08887,85.1997884 1106.67969,88.4362793 C1097.27051,91.6727702 1086.56006,93.2910156 1074.54834,93.2910156 C1060.6014,93.2910156 1048.97339,91.9396973 1039.66431,89.2370605 C1030.35522,86.5344238 1022.89795,82.6306152 1017.29248,77.5256348 C1011.68701,72.4206543 1007.69979,66.1979167 1005.33081,58.8574219 C1002.96183,51.5169271 1001.77734,43.2421875 1001.77734,34.0332031 L1001.77734,3.50341797 L1039.11377,3.50341797 L1039.11377,30.3295898 C1039.11377,35.7348633 1039.83114,40.5395508 1041.26587,44.7436523 C1042.7006,48.9477539 1044.96948,52.4678548 1048.07251,55.3039551 C1051.17554,58.1400553 1055.19613,60.2921549 1060.13428,61.7602539 C1065.07243,63.2283529 1071.04492,63.9624023 1078.05176,63.9624023 C1083.99089,63.9624023 1089.61304,63.2283529 1094.91821,61.7602539 C1100.22339,60.2921549 1105.11149,58.3569336 1109.58252,55.9545898 C1114.05355,53.5522461 1118.09082,50.8162435 1121.69434,47.746582 C1125.29785,44.6769206 1128.40088,41.5405273 1131.00342,38.3374023 L1131.00342,3.50341797 L1168.23975,3.50341797 L1168.23975,88.1860352 Z" id="Path"></path>
                    <path d="M1338.00537,42.2412109 C1335.40283,40.9733073 1331.96615,39.5385742 1327.69531,37.9370117 C1323.42448,36.3354492 1318.58643,34.8173014 1313.18115,33.3825684 C1307.77588,31.9478353 1301.90348,30.7466634 1295.56396,29.7790527 C1289.22445,28.8114421 1282.7181,28.3276367 1276.04492,28.3276367 C1270.70638,28.3276367 1266.15194,28.4944661 1262.38159,28.828125 C1258.61125,29.1617839 1255.44149,29.5955404 1252.87231,30.1293945 C1250.30314,30.6632487 1248.26782,31.2805176 1246.76636,31.9812012 C1245.26489,32.6818848 1244.11377,33.3992513 1243.31299,34.1333008 C1242.51221,34.8673503 1241.99504,35.6013997 1241.76147,36.3354492 C1241.52791,37.0694987 1241.41113,37.7368164 1241.41113,38.3374023 C1241.41113,40.3393555 1242.41211,42.0910645 1244.41406,43.5925293 C1246.41602,45.0939941 1249.15202,46.4286296 1252.62207,47.5964355 C1256.09212,48.7642415 1260.12939,49.8653158 1264.73389,50.8996582 C1269.33838,51.9340007 1274.22648,53.001709 1279.39819,54.1027832 C1284.56991,55.2038574 1289.90845,56.4050293 1295.41382,57.7062988 C1300.91919,59.0075684 1306.25773,60.5257161 1311.42944,62.2607422 C1316.60116,63.9957682 1321.48926,66.0144043 1326.09375,68.3166504 C1330.69824,70.6188965 1334.73551,73.3048503 1338.20557,76.3745117 C1341.67562,79.4441732 1344.41162,82.980957 1346.41357,86.9848633 C1348.41553,90.9887695 1349.4165,95.5598958 1349.4165,100.698242 C1349.4165,107.304688 1348.2487,112.976888 1345.91309,117.714844 C1343.57747,122.452799 1340.45776,126.456706 1336.55396,129.726562 C1332.65015,132.996419 1328.12907,135.615641 1322.99072,137.584229 C1317.85238,139.552816 1312.46379,141.070964 1306.82495,142.138672 C1301.18612,143.20638 1295.48055,143.907064 1289.70825,144.240723 C1283.93595,144.574382 1278.44727,144.741211 1273.24219,144.741211 C1259.62891,144.741211 1247.03328,143.623454 1235.45532,141.387939 C1223.87736,139.152425 1213.65072,136.366374 1204.77539,133.029785 L1204.77539,100.197754 C1213.91764,105.269368 1224.34448,109.239909 1236.05591,112.109375 C1247.76733,114.978841 1260.29622,116.413574 1273.64258,116.413574 C1281.51693,116.413574 1287.93986,115.996501 1292.91138,115.162354 C1297.88289,114.328206 1301.77002,113.260498 1304.57275,111.959229 C1307.37549,110.657959 1309.27734,109.239909 1310.27832,107.705078 C1311.2793,106.170247 1311.77979,104.702148 1311.77979,103.300781 C1311.77979,101.098633 1310.77881,99.1800944 1308.77686,97.545166 C1306.7749,95.9102376 1304.0389,94.4755046 1300.56885,93.2409668 C1297.0988,92.006429 1293.06152,90.8719889 1288.45703,89.8376465 C1283.85254,88.803304 1278.96444,87.7689616 1273.79272,86.7346191 C1268.62101,85.7002767 1263.29915,84.5825195 1257.82715,83.3813477 C1252.35514,82.1801758 1247.03328,80.7621257 1241.86157,79.1271973 C1236.68986,77.4922689 1231.80176,75.5904134 1227.19727,73.4216309 C1222.59277,71.2528483 1218.5555,68.6836751 1215.08545,65.7141113 C1211.6154,62.7445475 1208.87939,59.3078613 1206.87744,55.4040527 C1204.87549,51.5002441 1203.87451,46.9791667 1203.87451,41.8408203 C1203.87451,35.7682292 1204.94222,30.5297852 1207.07764,26.1254883 C1209.21305,21.7211914 1212.0992,17.9675293 1215.73608,14.864502 C1219.37297,11.7614746 1223.57707,9.24235026 1228.34839,7.30712891 C1233.11971,5.37190755 1238.14128,3.87044271 1243.41309,2.80273438 C1248.6849,1.73502604 1254.02344,1.00097656 1259.42871,0.600585938 C1264.83398,0.200195312 1269.97233,0 1274.84375,0 C1280.18229,0 1285.67098,0.266927083 1291.30981,0.80078125 C1296.94865,1.33463542 1302.50407,2.08536784 1307.97607,3.05297852 C1313.44808,4.02058919 1318.73657,5.13834635 1323.84155,6.40625 C1328.94653,7.67415365 1333.66781,9.00878906 1338.00537,10.4101562 L1338.00537,42.2412109 Z" id="Path"></path>
                </g>
            </g>
            <g id="Group" fill="#0C7EE9">
                <path d="M385,0 C597.629629,0 770,174.237826 770,389.171076 C770,400.336439 761.045695,409.387755 750,409.387755 C738.954305,409.387755 730,400.336439 730,389.171076 C730,196.568553 575.538239,40.4333585 385,40.4333585 C194.461761,40.4333585 40,196.568553 40,389.171076 C40,400.336439 31.045695,409.387755 20,409.387755 C8.954305,409.387755 0,400.336439 0,389.171076 C0,174.237826 172.370371,0 385,0 Z" id="Path-Copy"></path>
                <path d="M232.72173,119.841022 C385.672845,38.959552 575.591608,96.7064843 656.917159,248.822405 C738.242709,400.938326 680.178717,589.820031 527.227601,670.701501 C517.359787,675.91966 505.106964,672.194052 499.860154,662.380121 C494.613344,652.566191 498.359408,640.380274 508.227222,635.162115 C641.44271,564.716964 692.014575,400.207092 621.182643,267.719032 C550.350712,135.230972 384.937596,84.9352564 251.722109,155.380408 C241.854295,160.598567 229.601471,156.872958 224.354662,147.059028 C219.107852,137.245098 222.853916,125.059181 232.72173,119.841022 Z" id="Path-Copy"></path>
                <path d="M315.36072,181.209587 C437.450902,148.974105 562.944458,220.368115 595.658424,340.672572 C628.372389,460.977028 555.918651,584.635081 433.828469,616.870563 C423.095266,619.704452 412.062866,613.428055 409.186913,602.851839 C406.31096,592.275623 412.680519,581.404586 423.413722,578.570697 C524.037498,552.002992 583.752118,450.087015 556.790058,350.93499 C529.827999,251.782965 426.399243,192.941748 325.775467,219.509453 C225.151691,246.077158 165.437071,347.993135 192.399131,447.14516 C195.275084,457.721376 188.905524,468.592414 178.172322,471.426302 C167.439119,474.260191 156.406718,467.983794 153.530765,457.407578 C120.8168,337.103122 193.270538,213.445069 315.36072,181.209587 Z" id="Path-Copy-2"></path>
            </g>
        </g>
    </g>
</svg>